<?xml version="1.0" encoding="UTF-8"?>
<svg xmlns="http://www.w3.org/2000/svg" xmlns:xlink="http://www.w3.org/1999/xlink" width="1058" height="96.796875" viewBox="0 0 1058 96.796875">
<defs>
<g>
<g id="glyph-0-0">
<path d="M 5.273438 0 L 17.1875 0 L 17.1875 -24.804688 L 42.539062 -24.804688 L 42.539062 0 L 54.492188 0 L 54.492188 -58.203125 L 42.539062 -58.203125 L 42.539062 -34.6875 L 17.1875 -34.6875 L 17.1875 -58.203125 L 5.273438 -58.203125 Z M 5.273438 0 "/>
</g>
<g id="glyph-0-1">
<path d="M 2.929688 -48.320312 L 20.742188 -48.320312 L 20.742188 0 L 32.695312 0 L 32.695312 -48.320312 L 50.46875 -48.320312 L 50.46875 -58.203125 L 2.929688 -58.203125 Z M 2.929688 -48.320312 "/>
</g>
<g id="glyph-0-2">
<path d="M 5.273438 0 L 17.109375 0 L 17.109375 -27.460938 C 17.109375 -31.835938 16.796875 -40.390625 16.679688 -47.460938 C 18.75 -39.648438 21.09375 -31.484375 22.460938 -27.460938 L 32.265625 0 L 42.304688 0 L 51.953125 -27.460938 C 53.320312 -31.601562 55.78125 -40.078125 57.734375 -47.929688 C 57.617188 -40.585938 57.304688 -31.835938 57.304688 -27.460938 L 57.304688 0 L 69.296875 0 L 69.296875 -58.203125 L 50.9375 -58.203125 L 41.640625 -31.484375 C 40.46875 -27.773438 38.671875 -20 37.34375 -13.710938 C 35.976562 -20.039062 34.179688 -27.8125 33.007812 -31.484375 L 23.554688 -58.203125 L 5.273438 -58.203125 Z M 5.273438 0 "/>
</g>
<g id="glyph-0-3">
<path d="M 5.273438 0 L 42.304688 0 L 42.304688 -9.882812 L 17.1875 -9.882812 L 17.1875 -58.203125 L 5.273438 -58.203125 Z M 5.273438 0 "/>
</g>
<g id="glyph-0-4">
</g>
<g id="glyph-0-5">
<path d="M 26.601562 0.859375 C 40.742188 0.859375 49.0625 -5.976562 49.0625 -16.5625 C 49.0625 -26.328125 41.484375 -31.328125 31.679688 -33.59375 L 26.40625 -34.882812 C 21.484375 -36.054688 17.109375 -37.890625 17.109375 -42.226562 C 17.109375 -46.132812 20.546875 -48.945312 26.640625 -48.945312 C 32.617188 -48.945312 36.328125 -46.25 36.757812 -41.601562 L 48.28125 -41.601562 C 48.085938 -51.835938 39.648438 -58.984375 26.757812 -58.984375 C 14.101562 -58.984375 4.882812 -51.953125 4.882812 -41.445312 C 4.882812 -32.96875 10.78125 -28.007812 20.625 -25.625 L 27.03125 -24.023438 C 33.359375 -22.460938 37.070312 -20.625 37.070312 -16.640625 C 37.070312 -12.226562 32.851562 -9.21875 26.484375 -9.21875 C 20.039062 -9.21875 15.3125 -12.148438 14.921875 -18.046875 L 3.320312 -18.046875 C 3.671875 -5.664062 12.617188 0.859375 26.601562 0.859375 Z M 26.601562 0.859375 "/>
</g>
<g id="glyph-0-6">
<path d="M 24.53125 0.859375 C 37.65625 0.859375 45.898438 -8.203125 45.898438 -21.640625 C 45.898438 -35.15625 37.65625 -44.21875 24.53125 -44.21875 C 11.367188 -44.21875 3.164062 -35.15625 3.164062 -21.640625 C 3.164062 -8.203125 11.367188 0.859375 24.53125 0.859375 Z M 24.53125 -8.359375 C 18.28125 -8.359375 15.117188 -14.0625 15.117188 -21.679688 C 15.117188 -29.414062 18.28125 -35 24.53125 -35 C 30.78125 -35 33.984375 -29.375 33.984375 -21.679688 C 33.984375 -14.0625 30.78125 -8.359375 24.53125 -8.359375 Z M 24.53125 -8.359375 "/>
</g>
<g id="glyph-0-7">
<path d="M 24.53125 0.859375 C 35 0.859375 42.382812 -4.804688 44.023438 -13.984375 L 33.125 -15.976562 C 32.1875 -11.25 29.179688 -8.359375 24.648438 -8.359375 C 18.398438 -8.359375 15.117188 -13.867188 15.117188 -21.679688 C 15.117188 -29.570312 18.398438 -35 24.648438 -35 C 29.179688 -35 32.070312 -32.1875 33.046875 -27.65625 L 43.945312 -29.6875 C 42.304688 -38.671875 34.882812 -44.21875 24.53125 -44.21875 C 11.367188 -44.21875 3.164062 -35.15625 3.164062 -21.640625 C 3.164062 -8.203125 11.367188 0.859375 24.53125 0.859375 Z M 24.53125 0.859375 "/>
</g>
<g id="glyph-0-8">
<path d="M 5 0 L 16.71875 0 L 16.71875 -43.671875 L 5 -43.671875 Z M 10.859375 -49.375 C 14.375 -49.375 17.304688 -52.03125 17.304688 -55.390625 C 17.304688 -58.710938 14.375 -61.40625 10.859375 -61.40625 C 7.304688 -61.40625 4.414062 -58.710938 4.414062 -55.390625 C 4.414062 -52.03125 7.304688 -49.375 10.859375 -49.375 Z M 10.859375 -49.375 "/>
</g>
<g id="glyph-0-9">
<path d="M 17.1875 0.859375 C 23.632812 0.859375 27.851562 -1.992188 29.960938 -6.054688 L 30.351562 -6.054688 L 30.351562 0 L 41.445312 0 L 41.445312 -29.414062 C 41.445312 -40 32.304688 -44.21875 22.929688 -44.21875 C 13.164062 -44.21875 6.132812 -39.882812 3.90625 -32.304688 L 14.648438 -30.507812 C 15.585938 -33.320312 18.359375 -35.546875 22.890625 -35.546875 C 27.265625 -35.546875 29.726562 -33.4375 29.726562 -29.726562 L 29.726562 -29.53125 C 29.726562 -26.679688 26.640625 -26.367188 19.140625 -25.625 C 10.546875 -24.804688 2.65625 -21.992188 2.65625 -12.226562 C 2.65625 -3.59375 8.867188 0.859375 17.1875 0.859375 Z M 20.507812 -7.382812 C 16.640625 -7.382812 13.90625 -9.140625 13.90625 -12.539062 C 13.90625 -16.054688 16.796875 -17.734375 21.132812 -18.359375 C 23.710938 -18.710938 28.359375 -19.335938 29.804688 -20.351562 L 29.804688 -15.625 C 29.804688 -11.015625 25.976562 -7.382812 20.507812 -7.382812 Z M 20.507812 -7.382812 "/>
</g>
<g id="glyph-0-10">
<path d="M 16.71875 -58.203125 L 5 -58.203125 L 5 0 L 16.71875 0 Z M 16.71875 -58.203125 "/>
</g>
<g id="glyph-0-11">
<path d="M 16.71875 -25.273438 C 16.71875 -31.054688 20.195312 -34.414062 25.195312 -34.414062 C 30.117188 -34.414062 33.085938 -31.171875 33.085938 -25.742188 L 33.085938 0 L 44.84375 0 L 44.84375 -27.773438 C 44.84375 -38.007812 38.867188 -44.21875 29.804688 -44.21875 C 23.320312 -44.21875 19.023438 -41.015625 16.484375 -35.3125 L 16.484375 -58.203125 L 5 -58.203125 L 5 0 L 16.71875 0 Z M 16.71875 -25.273438 "/>
</g>
<g id="glyph-0-12">
<path d="M 5 0 L 16.71875 0 L 16.71875 -24.84375 C 16.71875 -30.273438 20.664062 -33.984375 26.054688 -33.984375 C 27.773438 -33.984375 30.078125 -33.710938 31.132812 -33.398438 L 31.132812 -43.867188 C 30.078125 -44.101562 28.554688 -44.257812 27.34375 -44.257812 C 22.421875 -44.257812 18.398438 -41.445312 16.796875 -36.054688 L 16.328125 -36.054688 L 16.328125 -43.671875 L 5 -43.671875 Z M 5 0 "/>
</g>
<g id="glyph-0-13">
<path d="M 24.726562 0.859375 C 34.882812 0.859375 41.835938 -3.867188 43.984375 -11.132812 L 33.359375 -13.125 C 32.109375 -9.765625 29.023438 -7.96875 24.921875 -7.96875 C 19.023438 -7.96875 15.039062 -11.640625 14.765625 -18.789062 L 44.648438 -18.789062 L 44.648438 -22.070312 C 44.648438 -36.992188 35.546875 -44.21875 24.140625 -44.21875 C 11.367188 -44.21875 3.164062 -35.078125 3.164062 -21.601562 C 3.164062 -7.8125 11.367188 0.859375 24.726562 0.859375 Z M 14.84375 -26.132812 C 15.3125 -31.523438 18.671875 -35.390625 24.257812 -35.390625 C 29.6875 -35.390625 32.773438 -31.835938 33.359375 -26.132812 Z M 14.84375 -26.132812 "/>
</g>
<g id="glyph-0-14">
<path d="M 5.273438 0 L 29.84375 0 C 42.96875 0 49.84375 -6.835938 49.84375 -16.054688 C 49.84375 -24.6875 43.671875 -29.84375 37.109375 -30.15625 L 37.109375 -30.742188 C 43.085938 -32.070312 47.578125 -36.328125 47.578125 -43.242188 C 47.578125 -51.953125 41.132812 -58.203125 28.359375 -58.203125 L 5.273438 -58.203125 Z M 17.1875 -9.804688 L 17.1875 -25.585938 L 27.8125 -25.585938 C 33.789062 -25.585938 37.578125 -22.070312 37.578125 -17.1875 C 37.578125 -12.773438 34.492188 -9.804688 27.5 -9.804688 Z M 17.1875 -33.75 L 17.1875 -48.476562 L 26.835938 -48.476562 C 32.421875 -48.476562 35.507812 -45.585938 35.507812 -41.328125 C 35.507812 -36.640625 31.71875 -33.75 26.601562 -33.75 Z M 17.1875 -33.75 "/>
</g>
<g id="glyph-0-15">
<path d="M 20.039062 0.546875 C 26.679688 0.546875 31.132812 -2.890625 33.59375 -9.0625 L 33.75 0 L 44.84375 0 L 44.84375 -43.671875 L 33.085938 -43.671875 L 33.085938 -18.398438 C 33.085938 -12.617188 29.570312 -9.257812 24.609375 -9.257812 C 19.6875 -9.257812 16.71875 -12.5 16.71875 -17.929688 L 16.71875 -43.671875 L 5 -43.671875 L 5 -15.898438 C 5 -5.664062 10.976562 0.546875 20.039062 0.546875 Z M 20.039062 0.546875 "/>
</g>
<g id="glyph-0-16">
<path d="M 26.679688 -43.671875 L 18.515625 -43.671875 L 18.515625 -54.0625 L 6.796875 -54.0625 L 6.796875 -43.671875 L 0.78125 -43.671875 L 0.78125 -34.726562 L 6.796875 -34.726562 L 6.796875 -11.757812 C 6.796875 -3.75 11.5625 0.625 20.3125 0.625 C 22.65625 0.625 25.273438 0.351562 27.890625 -0.429688 L 26.210938 -9.21875 C 25.351562 -8.984375 23.398438 -8.710938 22.5 -8.710938 C 19.648438 -8.710938 18.515625 -10 18.515625 -12.773438 L 18.515625 -34.726562 L 26.679688 -34.726562 Z M 26.679688 -43.671875 "/>
</g>
<g id="glyph-0-17">
<path d="M 16.71875 -25.273438 C 16.71875 -31.054688 20.195312 -34.414062 25.195312 -34.414062 C 30.117188 -34.414062 33.085938 -31.171875 33.085938 -25.742188 L 33.085938 0 L 44.804688 0 L 44.804688 -27.773438 C 44.804688 -38.007812 38.867188 -44.21875 29.804688 -44.21875 C 23.085938 -44.21875 18.671875 -40.742188 16.210938 -34.648438 L 16.054688 -43.671875 L 5 -43.671875 L 5 0 L 16.71875 0 Z M 16.71875 -25.273438 "/>
</g>
<g id="glyph-0-18">
<path d="M 22.34375 0.859375 C 33.789062 0.859375 41.875 -4.882812 41.875 -13.476562 C 41.875 -19.6875 37.8125 -23.554688 29.375 -25.273438 L 21.523438 -26.835938 C 17.382812 -27.695312 15.898438 -29.21875 15.898438 -31.40625 C 15.898438 -34.023438 18.867188 -35.820312 22.695312 -35.820312 C 26.953125 -35.820312 29.414062 -33.710938 30.351562 -30.742188 L 40.742188 -32.578125 C 39.101562 -39.6875 32.890625 -44.21875 22.539062 -44.21875 C 11.484375 -44.21875 4.179688 -39.0625 4.179688 -30.664062 C 4.179688 -24.140625 8.320312 -20 16.757812 -18.28125 L 24.296875 -16.71875 C 28.125 -15.9375 29.921875 -14.53125 29.921875 -12.226562 C 29.921875 -9.609375 27.148438 -7.734375 22.695312 -7.734375 C 17.890625 -7.734375 15.078125 -9.726562 13.945312 -13.828125 L 3.046875 -11.953125 C 4.570312 -3.828125 11.796875 0.859375 22.34375 0.859375 Z M 22.34375 0.859375 "/>
</g>
</g>
</defs>
<g fill="rgb(97.254902%, 98.039216%, 98.823529%)" fill-opacity="1">
<use xlink:href="#glyph-0-0" x="0" y="77.5"/>
<use xlink:href="#glyph-0-1" x="59.765625" y="77.5"/>
<use xlink:href="#glyph-0-2" x="113.171875" y="77.5"/>
<use xlink:href="#glyph-0-3" x="187.703125" y="77.5"/>
<use xlink:href="#glyph-0-4" x="232.9375" y="77.5"/>
<use xlink:href="#glyph-0-5" x="251.890625" y="77.5"/>
<use xlink:href="#glyph-0-6" x="304.28125" y="77.5"/>
<use xlink:href="#glyph-0-7" x="353.34375" y="77.5"/>
<use xlink:href="#glyph-0-8" x="400.421875" y="77.5"/>
<use xlink:href="#glyph-0-9" x="422.109375" y="77.5"/>
<use xlink:href="#glyph-0-10" x="468.5625" y="77.5"/>
<use xlink:href="#glyph-0-4" x="490.25" y="77.5"/>
<use xlink:href="#glyph-0-5" x="509.203125" y="77.5"/>
<use xlink:href="#glyph-0-11" x="561.59375" y="77.5"/>
<use xlink:href="#glyph-0-9" x="611.40625" y="77.5"/>
<use xlink:href="#glyph-0-12" x="657.859375" y="77.5"/>
<use xlink:href="#glyph-0-13" x="688.484375" y="77.5"/>
<use xlink:href="#glyph-0-4" x="736.140625" y="77.5"/>
<use xlink:href="#glyph-0-14" x="755.09375" y="77.5"/>
<use xlink:href="#glyph-0-15" x="808.03125" y="77.5"/>
<use xlink:href="#glyph-0-16" x="857.84375" y="77.5"/>
<use xlink:href="#glyph-0-16" x="886.28125" y="77.5"/>
<use xlink:href="#glyph-0-6" x="914.796875" y="77.5"/>
<use xlink:href="#glyph-0-17" x="963.859375" y="77.5"/>
<use xlink:href="#glyph-0-18" x="1013.671875" y="77.5"/>
</g>
</svg>
